<svg height="472pt" viewBox="0 -96 472 472" width="472pt" xmlns="http://www.w3.org/2000/svg"><path d="m464 184h-464v-8.296875c0-14.15625 9.058594-26.722656 22.488281-31.199219 26.875-5.503906 51.078125-19.980468 68.640625-41.054687 8.152344-9.789063 20.234375-15.449219 32.976563-15.449219h339.894531zm0 0" fill="#e4e4e2"/><path d="m74.191406 120c-15.023437 12.191406-32.753906 20.59375-51.703125 24.503906-4.609375 1.554688-8.816406 4.117188-12.3125 7.496094h64.566407c28.976562 0 56.769531-11.511719 77.257812-32zm0 0" fill="#b8eaee"/><path d="m22.488281 144.503906c-4.609375 1.554688-8.816406 4.117188-12.3125 7.496094h40.566407c28.976562 0 56.769531-11.511719 77.257812-32h-53.808594c-15.023437 12.191406-32.753906 20.59375-51.703125 24.503906zm0 0" fill="#c0f5f9"/><path d="m368 120h32v32h-32zm0 0" fill="#b9b9b9"/><path d="m432 120h32v32h-32zm0 0" fill="#b9b9b9"/><path d="m208 184h-32v-48c0-8.835938 7.164062-16 16-16s16 7.164062 16 16zm0 0" fill="#b9b9b9"/><path d="m304 120h32v32h-32zm0 0" fill="#b9b9b9"/><path d="m240 120h32v32h-32zm0 0" fill="#b9b9b9"/><path d="m368 128h24v24h-24zm0 0" fill="#c0f5f9"/><path d="m432 128h24v24h-24zm0 0" fill="#c0f5f9"/><path d="m304 128h24v24h-24zm0 0" fill="#c0f5f9"/><path d="m240 128h24v24h-24zm0 0" fill="#c0f5f9"/><path d="m0 184c20.488281 20.488281 48.28125 32 77.257812 32h386.742188v-32zm0 0" fill="#4799cf"/><path d="m0 248h464v32h-464zm0 0" fill="#64a8b2"/><path d="m256 24h48v16h-48zm0 0" fill="#c0f5f9"/><path d="m320 24h16v16h-16zm0 0" fill="#c0f5f9"/><path d="m352 48h48v16h-48zm0 0" fill="#c0f5f9"/><path d="m416 48h16v16h-16zm0 0" fill="#c0f5f9"/><path d="m392 8h48v16h-48zm0 0" fill="#c0f5f9"/><path d="m456 8h16v16h-16zm0 0" fill="#c0f5f9"/><path d="m160 0h48v16h-48zm0 0" fill="#c0f5f9"/><path d="m224 0h16v16h-16zm0 0" fill="#c0f5f9"/><path d="m128 48h48v16h-48zm0 0" fill="#c0f5f9"/><path d="m192 48h16v16h-16zm0 0" fill="#c0f5f9"/><g fill="#3b869e"><path d="m423.054688 248 16 32h17.890624l-16-32zm0 0"/><path d="m391.054688 248 16 32h17.890624l-16-32zm0 0"/><path d="m359.054688 248 16 32h17.890624l-16-32zm0 0"/><path d="m327.054688 248 16 32h17.890624l-16-32zm0 0"/><path d="m295.054688 248 16 32h17.890624l-16-32zm0 0"/><path d="m263.054688 248 16 32h17.890624l-16-32zm0 0"/><path d="m231.054688 248 16 32h17.890624l-16-32zm0 0"/><path d="m199.054688 248 16 32h17.890624l-16-32zm0 0"/><path d="m167.054688 248 16 32h17.890624l-16-32zm0 0"/><path d="m135.054688 248 16 32h17.890624l-16-32zm0 0"/><path d="m103.054688 248 16 32h17.890624l-16-32zm0 0"/><path d="m71.054688 248 16 32h17.890624l-16-32zm0 0"/><path d="m39.054688 248 16 32h17.890624l-16-32zm0 0"/><path d="m7.054688 248 16 32h17.890624l-16-32zm0 0"/></g></svg>